<svg xmlns="http://www.w3.org/2000/svg" xmlns:xlink="http://www.w3.org/1999/xlink" 
     viewBox="0 0 1920.183 1075.636" style="width: 100%; height: auto; display: block;">
  <defs>
    <linearGradient id="linear-gradient" x1="0.5" x2="0.5" y2="1" gradientUnits="objectBoundingBox">
      <!-- Gradient: Orange and Yellow -->
      <stop offset="0" stop-color="rgb(255, 165, 0)"/> <!-- Orange -->
      <stop offset="1" stop-color="rgb(255, 255, 0)"/> <!-- Yellow -->
    </linearGradient>
    <clipPath id="clip-path">
      <path id="Path_199" data-name="Path 199" d="M-533.031,278.516s95.269,204.193,401.21,161.147,419.656-32.1,544.188,96.892,343.977,107.54,572.909,67.066,360.19,68.158,401.79,142.968c.041-2.4-.074-1075.621-.074-1075.621l-1920,.011Z" transform="translate(533 329)" fill="url(#linear-gradient)"/>
    </clipPath>
  </defs>
  <g id="Group_112" data-name="Group 112" transform="translate(0.089 0.042)">
    <!-- Gradient Path with Orange to Yellow -->
    <path id="Path_195" data-name="Path 195" d="M-533.089,278.364s100.43,239.944,401.206,191.477,442.068,9.577,537.63,114.941,352.091,94.329,580.987,52.374S1349.9,678.95,1387.094,746.594c.016.016-.373-1075.609-.373-1075.609l-1919.766-.027Z" transform="translate(533 329)" opacity="0.11" fill="url(#linear-gradient)"/>
    
    <!-- Another gradient path with the same color scheme -->
    <path id="Path_194" data-name="Path 194" d="M-533.031,278.516s95.269,204.193,401.21,161.147,419.656-32.1,544.188,96.892,343.977,107.54,572.909,67.066,360.19,68.158,401.79,142.968c.041-2.4-.074-1075.621-.074-1075.621l-1920,.011Z" transform="translate(533 329)" fill="url(#linear-gradient)"/>
    
    <g id="Mask_Group_6" data-name="Mask Group 6" clip-path="url(#clip-path)">
      <!-- Path with gradient effect applied -->
      <path id="Path_4" data-name="Path 4" d="M-496.368,321.285S-322.126-70.761,321.065,66.253s869.415,77.467,1056.161-463.982" transform="translate(522 366.416)" fill="none" stroke="rgb(255, 165, 0)" stroke-width="128" opacity="0.14"/> <!-- Orange Stroke -->
    </g>
  </g>
</svg>
