<svg width="269" height="84" viewBox="0 0 269 84" fill="none" xmlns="http://www.w3.org/2000/svg">
<path d="M4.35224 14.7614C4.47664 13.202 5.7784 12 7.34274 12H51.0923C53.221 12 54.6725 14.1553 53.8722 16.1278L53.8244 16.2458C52.1034 20.4877 50.0613 24.5922 47.7159 28.5234L44.0597 34.6517L32.7168 52.7585C30.2312 56.7262 27.4399 60.4939 24.3681 64.0272L18.4512 70.8333C16.9174 72.5977 14.7572 73.6959 12.4279 73.8956L5.4275 74.4958C2.34914 74.7598 -0.229462 72.1964 0.0162261 69.1165L4.35224 14.7614Z" fill="#ED8D26"/>
<path d="M248.345 70.39C245.921 70.39 243.737 69.9571 241.794 69.0914C239.868 68.209 238.34 66.9105 237.211 65.1957C236.098 63.4809 235.542 61.3666 235.542 58.8527C235.542 56.6884 235.941 54.8987 236.738 53.4836C237.535 52.0685 238.623 50.9364 240.001 50.0874C241.379 49.2383 242.932 48.5973 244.659 48.1645C246.403 47.715 248.204 47.3903 250.064 47.1906C252.306 46.9575 254.124 46.7494 255.519 46.5663C256.914 46.3665 257.927 46.0668 258.558 45.6672C259.206 45.251 259.53 44.6101 259.53 43.7444V43.5945C259.53 41.7133 258.973 40.2565 257.861 39.2244C256.748 38.1922 255.146 37.6761 253.053 37.6761C250.845 37.6761 249.093 38.1589 247.797 39.1245C246.519 40.0901 245.655 41.2305 245.207 42.5457L236.788 41.347C237.452 39.0163 238.548 37.0684 240.076 35.5035C241.603 33.9219 243.472 32.7398 245.68 31.9574C247.889 31.1583 250.33 30.7587 253.003 30.7587C254.847 30.7587 256.682 30.9751 258.508 31.408C260.335 31.8408 262.004 32.5567 263.515 33.5556C265.026 34.5379 266.239 35.878 267.152 37.5762C268.082 39.2743 268.547 41.397 268.547 43.9441V69.6158H259.878V64.3466H259.58C259.032 65.4121 258.259 66.411 257.263 67.3433C256.283 68.259 255.046 68.9998 253.551 69.5659C252.074 70.1153 250.338 70.39 248.345 70.39ZM250.687 63.7473C252.497 63.7473 254.066 63.3894 255.395 62.6735C256.723 61.941 257.745 60.9754 258.459 59.7767C259.189 58.578 259.555 57.2711 259.555 55.856V51.336C259.272 51.5691 258.791 51.7855 258.11 51.9853C257.446 52.1851 256.698 52.3599 255.868 52.5097C255.038 52.6595 254.216 52.7927 253.402 52.9093C252.588 53.0258 251.883 53.1257 251.285 53.2089C249.94 53.3921 248.736 53.6917 247.673 54.1079C246.61 54.5241 245.771 55.1068 245.157 55.856C244.543 56.5885 244.235 57.5375 244.235 58.7029C244.235 60.3677 244.842 61.6246 246.054 62.4737C247.266 63.3228 248.81 63.7473 250.687 63.7473Z" fill="white"/>
<path d="M203.621 84C202.392 84 201.254 83.9001 200.208 83.7003C199.179 83.5172 198.357 83.3008 197.742 83.051L199.835 76.0088C201.146 76.3917 202.317 76.5749 203.347 76.5582C204.376 76.5416 205.281 76.2169 206.062 75.5843C206.859 74.9683 207.532 73.9361 208.08 72.4877L208.852 70.415L194.977 31.2582H204.542L213.36 60.2262H213.759L222.602 31.2582H232.192L216.873 74.2607C216.158 76.2918 215.212 78.0316 214.033 79.48C212.854 80.945 211.409 82.0605 209.699 82.8263C208.005 83.6088 205.979 84 203.621 84Z" fill="white"/>
<path d="M179.727 69.6158V31.2582H188.744V69.6158H179.727ZM184.26 25.8142C182.832 25.8142 181.603 25.3397 180.574 24.3907C179.544 23.4251 179.029 22.2681 179.029 20.9196C179.029 19.5544 179.544 18.3974 180.574 17.4484C181.603 16.4828 182.832 16 184.26 16C185.705 16 186.934 16.4828 187.947 17.4484C188.976 18.3974 189.491 19.5544 189.491 20.9196C189.491 22.2681 188.976 23.4251 187.947 24.3907C186.934 25.3397 185.705 25.8142 184.26 25.8142Z" fill="#ED8D26"/>
<path d="M172.665 31.2582V38.2505H150.047V31.2582H172.665ZM155.702 69.6159V27.6372C155.702 25.0567 156.233 22.9091 157.296 21.1943C158.375 19.4795 159.82 18.1976 161.63 17.3485C163.44 16.4995 165.45 16.0749 167.658 16.0749C169.219 16.0749 170.606 16.1998 171.818 16.4495C173.03 16.6992 173.927 16.924 174.508 17.1238L172.715 24.1161C172.333 23.9995 171.851 23.883 171.27 23.7664C170.689 23.6333 170.041 23.5667 169.327 23.5667C167.65 23.5667 166.463 23.9746 165.765 24.7903C165.084 25.5894 164.744 26.7382 164.744 28.2365V69.6159H155.702Z" fill="white"/>
<path d="M124.017 70.39C121.593 70.39 119.409 69.9571 117.466 69.0914C115.54 68.209 114.012 66.9105 112.883 65.1957C111.77 63.4809 111.214 61.3666 111.214 58.8527C111.214 56.6884 111.612 54.8987 112.409 53.4836C113.206 52.0685 114.294 50.9364 115.672 50.0874C117.051 49.2383 118.603 48.5973 120.33 48.1645C122.074 47.715 123.876 47.3903 125.736 47.1906C127.978 46.9575 129.796 46.7494 131.191 46.5663C132.586 46.3665 133.599 46.0668 134.23 45.6672C134.877 45.251 135.201 44.6101 135.201 43.7444V43.5945C135.201 41.7133 134.645 40.2565 133.532 39.2244C132.42 38.1922 130.817 37.6761 128.725 37.6761C126.516 37.6761 124.764 38.1589 123.469 39.1245C122.19 40.0901 121.327 41.2305 120.878 42.5457L112.459 41.347C113.123 39.0163 114.219 37.0684 115.747 35.5035C117.275 33.9219 119.143 32.7398 121.352 31.9574C123.56 31.1583 126.001 30.7587 128.675 30.7587C130.518 30.7587 132.353 30.9751 134.18 31.408C136.007 31.8408 137.676 32.5567 139.187 33.5556C140.698 34.5379 141.91 35.878 142.824 37.5762C143.753 39.2743 144.218 41.397 144.218 43.9441V69.6158H135.55V64.3466H135.251C134.703 65.4121 133.931 66.411 132.935 67.3433C131.955 68.259 130.718 68.9998 129.223 69.5659C127.745 70.1153 126.01 70.39 124.017 70.39ZM126.358 63.7473C128.169 63.7473 129.738 63.3894 131.066 62.6735C132.395 61.941 133.416 60.9754 134.13 59.7767C134.861 58.578 135.226 57.2711 135.226 55.856V51.336C134.944 51.5691 134.462 51.7855 133.781 51.9853C133.117 52.1851 132.37 52.3599 131.54 52.5097C130.709 52.6595 129.887 52.7927 129.074 52.9093C128.26 53.0258 127.554 53.1257 126.956 53.2089C125.611 53.3921 124.407 53.6917 123.344 54.1079C122.282 54.5241 121.443 55.1068 120.829 55.856C120.214 56.5885 119.907 57.5375 119.907 58.7029C119.907 60.3677 120.513 61.6246 121.725 62.4737C122.938 63.3228 124.482 63.7473 126.358 63.7473Z" fill="white"/>
<path d="M104.75 41.397L96.5299 42.296C96.2974 41.4636 95.8906 40.6811 95.3094 39.9486C94.7447 39.216 93.9809 38.625 93.0177 38.1755C92.0545 37.726 90.8755 37.5013 89.4806 37.5013C87.6041 37.5013 86.0265 37.9091 84.7478 38.7249C83.4857 39.5407 82.863 40.5978 82.8796 41.8964C82.863 43.0118 83.2699 43.9192 84.1002 44.6184C84.9471 45.3176 86.342 45.892 88.2849 46.3415L94.8112 47.74C98.4313 48.5224 101.122 49.7627 102.882 51.4609C104.659 53.159 105.555 55.3815 105.572 58.1285C105.555 60.5425 104.85 62.6735 103.455 64.5214C102.076 66.3528 100.158 67.7845 97.7006 68.8167C95.2429 69.8489 92.4199 70.365 89.2315 70.365C84.5485 70.365 80.7789 69.3827 77.9227 67.4182C75.0664 65.4371 73.3643 62.6818 72.8163 59.1524L81.6092 58.3033C82.0078 60.0347 82.8547 61.3416 84.15 62.224C85.4453 63.1063 87.1308 63.5475 89.2066 63.5475C91.3488 63.5475 93.0675 63.1063 94.3628 62.224C95.6747 61.3416 96.3306 60.2512 96.3306 58.9526C96.3306 57.8538 95.9072 56.9465 95.0603 56.2306C94.2299 55.5147 92.9347 54.9653 91.1744 54.5824L84.6482 53.2089C80.9782 52.4431 78.2631 51.1529 76.5029 49.3382C74.7426 47.5069 73.8708 45.1928 73.8874 42.3959C73.8708 40.0318 74.5101 37.9841 75.8054 36.2526C77.1173 34.5046 78.9357 33.1561 81.2605 32.2071C83.602 31.2415 86.3005 30.7587 89.356 30.7587C93.8397 30.7587 97.3685 31.716 99.9425 33.6305C102.533 35.5451 104.136 38.1339 104.75 41.397Z" fill="white"/>
<path d="M65.2374 18.4723V69.6158H56.2202V18.4723H65.2374Z" fill="#DAA520"/>
<path d="M12.411 69.6158H2.54689L20.5065 18.4723H31.9149L49.8994 69.6158H40.0353L26.41 28.9607H26.0114L12.411 69.6158ZM12.7348 49.563H39.6368V57.0047H12.7348V49.563Z" fill="white"/>
<path d="M188.611 31.5245H179.843V69.6158H188.611V31.5245Z" fill="white"/>
<path d="M39.5469 11C39.5469 9.54642 39.2588 8.10726 38.6993 6.76569C38.1397 5.42412 37.3198 4.20675 36.287 3.18394C35.2542 2.16114 34.0288 1.35318 32.6819 0.806769C31.3349 0.260358 29.893 -0.0136693 28.4395 0.000524474C26.986 0.0147182 25.5497 0.316852 24.2136 0.889463C22.8776 1.46207 21.6683 2.2938 20.6556 3.33658C19.643 4.37936 18.847 5.61251 18.3138 6.96475C17.7805 8.31699 17.5206 9.76151 17.549 11.2148L19.367 11.1793C19.3433 9.96624 19.5603 8.76051 20.0053 7.6318C20.4504 6.50309 21.1148 5.47379 21.9601 4.60338C22.8054 3.73298 23.8148 3.03874 24.9299 2.56078C26.0451 2.08283 27.244 1.83064 28.4572 1.81879C29.6705 1.80694 30.874 2.03567 31.9983 2.49176C33.1226 2.94784 34.1454 3.62224 35.0075 4.47597C35.8696 5.3297 36.554 6.34583 37.021 7.46564C37.4881 8.58544 37.7285 9.7867 37.7285 11H39.5469Z" fill="white"/>
</svg>

